<?xml version="1.0" encoding="UTF-8"?>
<!DOCTYPE svg PUBLIC "-//W3C//DTD SVG 1.1//EN" "http://www.w3.org/Graphics/SVG/1.1/DTD/svg11.dtd">
<svg xmlns="http://www.w3.org/2000/svg" version="1.1" width="512px" height="512px" style="shape-rendering:geometricPrecision; text-rendering:geometricPrecision; image-rendering:optimizeQuality; fill-rule:evenodd; clip-rule:evenodd" xmlns:xlink="http://www.w3.org/1999/xlink">
<g><path style="opacity:0.991" fill="#000000" d="M 233.5,-0.5 C 248.167,-0.5 262.833,-0.5 277.5,-0.5C 366.955,9.62078 434.455,53.2874 480,130.5C 497.5,162.825 508,197.158 511.5,233.5C 511.5,248.167 511.5,262.833 511.5,277.5C 501.379,366.955 457.713,434.455 380.5,480C 348.175,497.5 313.842,508 277.5,511.5C 262.833,511.5 248.167,511.5 233.5,511.5C 144.045,501.379 76.5449,457.713 31,380.5C 13.4997,348.175 2.99967,313.842 -0.5,277.5C -0.5,262.833 -0.5,248.167 -0.5,233.5C 9.62078,144.045 53.2874,76.5449 130.5,31C 162.825,13.4997 197.158,2.99967 233.5,-0.5 Z M 371.5,150.5 C 377.281,149.896 382.614,151.062 387.5,154C 399.304,164.803 410.804,175.97 422,187.5C 427.134,195.44 427.8,203.773 424,212.5C 363.194,274.306 302.028,335.806 240.5,397C 231.666,404.643 222.333,405.309 212.5,399C 171,357.5 129.5,316 88,274.5C 82.856,264.708 83.5227,255.374 90,246.5C 101.471,236.03 112.637,225.197 123.5,214C 131.694,209.121 139.694,209.454 147.5,215C 173.333,240.833 199.167,266.667 225,292.5C 271.806,246.694 318.306,200.528 364.5,154C 366.925,152.787 369.259,151.621 371.5,150.5 Z"/></g>
</svg>
