<?xml version="1.0" encoding="UTF-8"?>
<!DOCTYPE svg PUBLIC "-//W3C//DTD SVG 1.1//EN" "http://www.w3.org/Graphics/SVG/1.1/DTD/svg11.dtd">
<svg xmlns="http://www.w3.org/2000/svg" version="1.1" width="512px" height="512px" style="shape-rendering:geometricPrecision; text-rendering:geometricPrecision; image-rendering:optimizeQuality; fill-rule:evenodd; clip-rule:evenodd" xmlns:xlink="http://www.w3.org/1999/xlink">
<g><path style="opacity:0.991" fill="#000000" d="M 233.5,-0.5 C 248.167,-0.5 262.833,-0.5 277.5,-0.5C 367.555,10.0943 435.388,54.4276 481,132.5C 497.855,164.278 508.022,197.945 511.5,233.5C 511.5,248.167 511.5,262.833 511.5,277.5C 500.906,367.555 456.572,435.388 378.5,481C 346.722,497.855 313.055,508.022 277.5,511.5C 262.833,511.5 248.167,511.5 233.5,511.5C 143.445,500.906 75.612,456.572 30,378.5C 13.1449,346.722 2.97822,313.055 -0.5,277.5C -0.5,262.833 -0.5,248.167 -0.5,233.5C 10.0943,143.445 54.4276,75.612 132.5,30C 164.278,13.1449 197.945,2.97822 233.5,-0.5 Z M 156.5,138.5 C 164.64,137.283 171.973,139.116 178.5,144C 204.014,169.681 229.68,195.181 255.5,220.5C 282.014,194.152 308.681,167.986 335.5,142C 350.592,134.894 362.425,138.394 371,152.5C 373.944,161.878 372.611,170.545 367,178.5C 341.319,204.014 315.819,229.68 290.5,255.5C 316.848,282.014 343.014,308.681 369,335.5C 376.106,350.592 372.606,362.425 358.5,371C 349.122,373.944 340.455,372.611 332.5,367C 306.986,341.319 281.32,315.819 255.5,290.5C 228.986,316.848 202.319,343.014 175.5,369C 160.408,376.106 148.575,372.606 140,358.5C 137.056,349.122 138.389,340.455 144,332.5C 169.681,306.986 195.181,281.32 220.5,255.5C 194.152,228.986 167.986,202.319 142,175.5C 134.274,157.986 139.107,145.652 156.5,138.5 Z"/></g>
</svg>
